<!DOCTYPE svg PUBLIC "-//W3C//DTD SVG 1.1//EN" "http://www.w3.org/Graphics/SVG/1.1/DTD/svg11.dtd">
<!-- Uploaded to: SVG Repo, www.svgrepo.com, Transformed by: SVG Repo Mixer Tools -->
<svg width="256px" height="256px" viewBox="-8.6 -8.6 37.20 37.20" version="1.1" xmlns="http://www.w3.org/2000/svg" xmlns:xlink="http://www.w3.org/1999/xlink" fill="#000000" transform="rotate(0)" stroke="#000000">
<g id="SVGRepo_bgCarrier" stroke-width="0" transform="translate(0,0), scale(1)">
<path transform="translate(-8.6, -8.6), scale(2.325)" fill="#050506" d="M9.166.33a2.25 2.25 0 00-2.332 0l-5.25 3.182A2.25 2.25 0 00.5 5.436v5.128a2.25 2.25 0 001.084 1.924l5.25 3.182a2.25 2.25 0 002.332 0l5.25-3.182a2.25 2.25 0 001.084-1.924V5.436a2.25 2.25 0 00-1.084-1.924L9.166.33z" strokewidth="0"/>
</g>
<g id="SVGRepo_tracerCarrier" stroke-linecap="round" stroke-linejoin="round" stroke="#CCCCCC" stroke-width="0.44000000000000006"/>
<g id="SVGRepo_iconCarrier"> <title>html [#124]</title> <desc>Created with Sketch.</desc> <defs> </defs> <g id="Page-1" stroke="none" stroke-width="1" fill="none" fill-rule="evenodd"> <g id="Dribbble-Light-Preview" transform="translate(-61.000000, -7639.000000)" fill="#f7f7f7"> <g id="icons" transform="translate(56.000000, 160.000000)"> <path d="M19.4350881,7485 L19.4279481,7485 L10.8119794,7485 L11.0180201,7487 L19.2300674,7487 C19.109707,7488.752 18.7455658,7492.464 18.6119454,7494.153 L13.99949,7495.451 L13.99949,7495.455 L13.98929,7495.46 L9.37377458,7493.836 L9.05757353,7490 L11.3199411,7490 L11.4800816,7492.063 L13.99337,7493 L13.99949,7493 L16.5086984,7492.1 L16.7667592,7489 L8.95659319,7489 C8.91885306,7488.599 8.43333144,7483.392 8.34867116,7483 L19.6370488,7483 C19.5738086,7483.66 19.5095484,7484.338 19.4350881,7485 L19.4350881,7485 Z M5,7479 L6.63812546,7497.148 L13.98929,7499 L21.3598345,7497.111 L23,7479 L5,7479 Z" id="html-[#124]"> </path> </g> </g> </g> </g>
</svg>